<svg width="80" height="80" viewBox="0 0 80 80" fill="none" xmlns="http://www.w3.org/2000/svg">
<rect width="80" height="80" rx="40" fill="url(#paint0_linear_14_93)"/>
<path d="M45.3202 35.5385C45.3202 35.5385 48.6233 41.3637 48.6233 38.1424C48.6233 34.9227 46.0104 32.3123 42.7915 32.3123C39.5718 32.3123 36.9597 34.9227 36.9597 38.1424C36.9606 41.3637 45.3202 35.5385 45.3202 35.5385Z" fill="white"/>
<path d="M49.485 31.2578C49.7998 31.0814 50.1081 30.9155 50.384 30.7982C50.6526 30.68 50.9278 30.6274 50.9561 30.6913C50.9723 30.7172 50.8881 30.7536 50.8088 30.748C50.7287 30.7431 50.6971 30.7278 50.706 30.7682C50.706 30.7957 50.7473 30.9001 50.7603 30.9527L50.8056 31.0676C50.7967 31.0579 50.825 31.1283 50.8315 31.1534L50.9027 31.3743L51.5249 33.3471C51.9926 34.7275 52.6359 36.2771 53.878 37.5168C54.4962 38.1245 55.2674 38.6156 56.0879 38.8511C56.9084 39.0866 57.7491 39.0906 58.5106 38.8657C57.8373 38.4384 57.2604 38.0233 56.8154 37.5459C56.3663 37.0758 56.0345 36.5805 55.761 36.0416C55.214 34.9719 54.8709 33.7322 54.4194 32.3761C54.1871 31.698 53.9403 30.9875 53.5738 30.2495L53.4281 29.972L53.3399 29.8101L53.2655 29.6839C53.1093 29.4145 52.9539 29.2146 52.7136 28.9702C52.4798 28.7396 52.1545 28.4928 51.7369 28.3585C51.321 28.2209 50.8614 28.2314 50.5216 28.3269C50.1704 28.4184 49.9163 28.5737 49.7027 28.7242C49.4907 28.878 49.3151 29.0341 49.1686 29.1984C48.8668 29.5221 48.6426 29.8522 48.4387 30.1807C48.2381 30.5125 48.0592 30.8386 47.895 31.1728C47.8108 31.3387 47.7258 31.5005 47.6312 31.6551C47.543 31.821 47.4507 31.969 47.3059 32.1082C47.7226 32.1462 48.1207 31.9456 48.4751 31.7902C48.8368 31.6227 49.1638 31.4309 49.485 31.2578Z" fill="white"/>
<path d="M61.2715 70.5694C56.9505 68.2883 52.5542 66.1674 48.0544 64.2917C47.6401 66.5987 47.0211 68.8733 46.3616 71.0492C50.2416 72.704 54.0383 74.5457 57.788 76.5282C61.7206 78.6029 65.2074 72.6473 61.2715 70.5694Z" fill="white"/>
<path d="M45.1292 51.0277C45.071 50.9273 45.0111 50.8359 44.9471 50.7461C44.7343 48.3428 43.4129 46.247 40.775 45.522C39.6794 45.221 38.4187 45.3035 37.2567 45.6968C37.1904 45.6483 37.1272 45.5997 37.0552 45.556C31.9914 42.3686 27.1355 38.9304 22.5725 35.0537C19.2039 32.1924 14.2979 37.0491 17.694 39.9338C22.6114 44.1108 27.8233 47.8743 33.2723 51.3222C32.8507 53.6486 32.3021 55.9475 31.6831 58.2278C26.6629 56.6579 21.7836 54.5355 16.4519 54.3469C14.6215 54.283 12.9352 55.9645 13.0016 57.7989C13.1723 62.518 14.6612 66.818 16.693 71.0387C18.6221 75.0482 24.5712 71.546 22.6518 67.5568C21.7553 65.6908 20.9906 63.7844 20.4938 61.8068C25.2647 62.8878 29.8454 65.2174 34.6277 66.1245C34.6779 66.1342 34.7248 66.1391 34.7741 66.144C36.1166 66.678 37.6419 67.2914 37.9356 67.3909C38.6008 65.1794 39.1704 62.9437 39.4536 60.7152C39.7538 60.4255 40.0824 60.1924 40.4206 60.0055C40.2596 64.5782 38.625 69.2277 37.2599 73.5067C35.9046 77.7597 42.5665 79.5634 43.9146 75.3419C46.3592 67.6854 49.4737 58.5417 45.1292 51.0277Z" fill="white"/>
<defs>
<linearGradient id="paint0_linear_14_93" x1="20.6667" y1="69.3333" x2="80" y2="12" gradientUnits="userSpaceOnUse">
<stop stop-color="#5478EF"/>
<stop offset="1" stop-color="#D6DFFF"/>
</linearGradient>
</defs>
</svg>
