<svg width="80" height="80" viewBox="0 0 80 80" fill="none" xmlns="http://www.w3.org/2000/svg">
<rect width="80" height="80" rx="40" fill="url(#paint0_linear_14_99)"/>
<path d="M57.3795 59.4002C60.4837 59.4002 63 56.8838 63 53.7797C63 50.6756 60.4837 48.1592 57.3795 48.1592C54.2754 48.1592 51.759 50.6756 51.759 53.7797C51.759 56.8838 54.2754 59.4002 57.3795 59.4002Z" fill="white"/>
<path d="M45.0872 47.8434H31.4901C30.9398 47.8434 30.4101 47.9261 29.9056 48.0718V23.9972C29.9056 22.1195 28.384 20.5979 26.5072 20.5979C24.6295 20.5979 23.1079 22.1195 23.1079 23.9972V53.9073C20.616 53.9073 18.1223 53.9073 15.6304 53.9073C12.1232 53.9073 12.1232 59.3461 15.6304 59.3461C20.6646 59.3461 25.6987 59.3461 30.7329 59.3461C30.9811 59.3794 31.2338 59.4019 31.491 59.4019H45.089C48.2788 59.4019 50.866 56.8146 50.866 53.624C50.8633 50.4324 48.2761 47.8434 45.0872 47.8434Z" fill="white"/>
<defs>
<linearGradient id="paint0_linear_14_99" x1="13.3333" y1="68" x2="80" y2="12.6667" gradientUnits="userSpaceOnUse">
<stop stop-color="#4BACE1"/>
<stop offset="1" stop-color="#D8F1FF"/>
</linearGradient>
</defs>
</svg>
