<svg width="80" height="80" viewBox="0 0 80 80" fill="none" xmlns="http://www.w3.org/2000/svg">
<rect width="80" height="80" rx="40" fill="url(#paint0_linear_18_119)"/>
<path d="M58.8641 36.22C61.1483 36.22 63 34.3683 63 32.0841C63 29.7999 61.1483 27.9482 58.8641 27.9482C56.58 27.9482 54.7283 29.7999 54.7283 32.0841C54.7283 34.3683 56.58 36.22 58.8641 36.22Z" fill="white"/>
<path d="M22.4923 48.7252C26.7371 46.6497 30.9819 44.5761 35.2277 42.5006C36.6131 44.5639 39.0948 44.7828 41.1683 43.717C43.6928 42.4202 46.2204 41.1213 48.7428 39.8244C48.8487 42.1962 48.9505 44.57 49.0533 46.9418C49.1846 49.9183 53.7989 49.7177 53.6676 46.7413C53.5281 43.5389 53.3907 40.3364 53.2502 37.135C54.3201 35.7303 54.3496 33.5295 53.4212 32.0922C52.044 29.9657 49.5307 29.7316 47.4307 30.8086C43.7743 32.6877 40.1178 34.5658 36.4634 36.4439C36.0471 36.6576 35.702 36.9528 35.4211 37.2979C30.2774 39.8122 25.1348 42.3265 19.9902 44.8418C17.3191 46.1458 19.8446 50.018 22.4923 48.7252Z" fill="white"/>
<path d="M62.3526 49.3779H13V52.052H62.3526V49.3779Z" fill="white"/>
<defs>
<linearGradient id="paint0_linear_18_119" x1="20.6667" y1="69.3333" x2="80" y2="12" gradientUnits="userSpaceOnUse">
<stop stop-color="#5478EF"/>
<stop offset="1" stop-color="#D6DFFF"/>
</linearGradient>
</defs>
</svg>
