<svg width="100" height="100" viewBox="0 0 100 100" fill="none" xmlns="http://www.w3.org/2000/svg">
<g opacity="0.2" filter="url(#filter0_b_52_56)">
<rect width="100" height="100" rx="20" fill="white"/>
</g>
<path d="M70.9689 45.2834C69.8665 40.6199 67.9399 35.3007 64.3762 31.9451C64.2717 31.8458 64.1637 31.7577 64.054 31.6756C66.0669 29.6886 62.8738 26.5793 60.6881 28.5136C56.4453 32.2717 51.5054 35.032 46.3365 37.3032C46.1412 37.3637 45.9512 37.438 45.7663 37.5236C41.3499 37.3387 35.9408 36.3961 32.8609 33.2298C30.7805 31.0907 27.5157 34.3616 29.5944 36.4972C32.8877 39.8847 37.997 41.3819 42.8488 41.9236C42.8436 42.3685 42.9024 42.8169 43.044 43.2583C44.9386 49.1633 49.0112 54.9387 55.0561 57.0242C55.4527 57.1624 55.8561 57.2246 56.2561 57.235C56.2561 62.1335 56.2561 67.0302 56.2561 71.927C56.2561 76.0238 62.6103 76.0238 62.6103 71.927C62.6103 65.7456 62.6103 59.5624 62.6103 53.3827C66.7088 51.8 71.8648 49.0639 70.9689 45.2834ZM58.7045 48.0402C58.3745 47.8467 58.0246 47.6799 57.6522 47.5521C58.0099 47.7482 57.9218 47.7041 57.3836 47.4199C57.1037 47.2747 56.9888 47.2281 56.9447 47.2186C56.9145 47.1788 56.8194 47.0838 56.5654 46.8687C55.99 46.384 55.2998 45.6678 54.9248 45.1693C53.787 43.6575 52.9533 42.0307 52.5309 40.7166C52.4125 40.3529 52.2579 40.0099 52.0773 39.6868C54.5412 38.4471 56.9188 37.0613 59.1831 35.4985C59.3421 35.8225 59.5693 36.1387 59.8855 36.4359C62.1965 38.613 63.4976 41.9434 64.3633 45.0855C62.6933 46.4488 60.765 47.3318 58.7045 48.0402Z" fill="white"/>
<path d="M44.3736 35.8717C47.3757 35.8717 49.8095 33.438 49.8095 30.4359C49.8095 27.4337 47.3757 25 44.3736 25C41.3715 25 38.9377 27.4337 38.9377 30.4359C38.9377 33.438 41.3715 35.8717 44.3736 35.8717Z" fill="white"/>
<defs>
<filter id="filter0_b_52_56" x="-64" y="-64" width="228" height="228" filterUnits="userSpaceOnUse" color-interpolation-filters="sRGB">
<feFlood flood-opacity="0" result="BackgroundImageFix"/>
<feGaussianBlur in="BackgroundImageFix" stdDeviation="32"/>
<feComposite in2="SourceAlpha" operator="in" result="effect1_backgroundBlur_52_56"/>
<feBlend mode="normal" in="SourceGraphic" in2="effect1_backgroundBlur_52_56" result="shape"/>
</filter>
</defs>
</svg>
