<svg width="80" height="80" viewBox="0 0 80 80" fill="none" xmlns="http://www.w3.org/2000/svg">
<rect width="80" height="80" rx="40" fill="url(#paint0_linear_14_112)"/>
<path d="M61.9747 47.803C55.5955 42.6252 50.4322 36.3364 46.0916 29.3883C45.7611 28.8607 45.349 28.4979 44.8989 28.2716C43.367 26.9707 41.0294 26.5764 39.1418 28.3379C35.4872 31.7461 31.7695 35.0097 27.8022 38.051C27.3117 38.4267 26.8859 38.8623 26.5465 39.339C26.2839 39.4392 26.031 39.5766 25.8055 39.7697C22.4652 42.6381 18.5528 45.4815 14.175 48.2223C13.0033 48.956 12.6486 50.5001 13.3831 51.6734C13.8582 52.4313 14.6727 52.8474 15.5066 52.8474C15.9607 52.8474 16.4196 52.7246 16.8325 52.4652C20.6851 50.0525 24.1984 47.5557 27.3181 45.021C28.674 46.0754 30.7037 46.4705 32.1105 45.391C35.9857 42.4224 39.6832 39.3228 43.2878 36.0585C47.3691 42.0095 52.1032 47.4862 57.7262 52.0515C60.7062 54.4699 64.9838 50.2464 61.9747 47.803Z" fill="white"/>
<path d="M23.9964 39.5385C26.3807 39.5385 28.3136 37.6056 28.3136 35.2213C28.3136 32.8369 26.3807 30.9041 23.9964 30.9041C21.612 30.9041 19.6791 32.8369 19.6791 35.2213C19.6791 37.6056 21.612 39.5385 23.9964 39.5385Z" fill="white"/>
<defs>
<linearGradient id="paint0_linear_14_112" x1="13.3333" y1="68" x2="80" y2="12.6667" gradientUnits="userSpaceOnUse">
<stop stop-color="#4BACE1"/>
<stop offset="1" stop-color="#D8F1FF"/>
</linearGradient>
</defs>
</svg>
