<svg width="80" height="80" viewBox="0 0 80 80" fill="none" xmlns="http://www.w3.org/2000/svg">
<rect width="80" height="80" rx="40" fill="url(#paint0_linear_14_106)"/>
<path d="M43.1788 23.2146C45.4472 23.2146 47.2861 21.3757 47.2861 19.1073C47.2861 16.8389 45.4472 15 43.1788 15C40.9104 15 39.0715 16.8389 39.0715 19.1073C39.0715 21.3757 40.9104 23.2146 43.1788 23.2146Z" fill="white"/>
<path d="M30.4354 27.1528C29.5209 27.5592 28.6426 27.9798 27.813 28.3963C25.3 29.6583 27.5085 33.4189 30.0147 32.1612C30.162 32.088 30.3117 32.0207 30.459 31.9492C30.3849 30.3624 30.3546 28.7589 30.4354 27.1528Z" fill="white"/>
<path d="M48.861 27.1494C48.9939 26.3956 48.7003 25.6233 47.7471 25.2144C44.1252 23.6588 39.9809 23.9945 36.0352 25.0975C36.036 25.2573 36.0284 25.418 36.0032 25.5804C35.7979 26.9029 35.755 28.0429 35.7811 29.405L43.1796 29.1416C43.1796 29.1416 44.2161 29.4142 43.4438 29.7827C42.3559 29.8307 35.177 30.1765 35.177 30.1765C35.0887 28.3508 35.0828 26.5218 35.3604 24.7306C35.7861 21.9804 31.5855 20.7992 31.1556 23.5713C30.5986 27.1603 30.8678 30.7191 31.0782 34.325C31.169 35.9058 32.8819 37.1324 34.3584 36.2078C35.4227 35.5407 36.4483 34.7919 37.4259 33.9851L37.4225 35.3943L37.3922 50.5926V62.6486C37.3922 63.9467 38.3412 65 39.6764 65C41.0098 65 42.0935 63.9467 42.0935 62.6486V45.4168H44.227C44.227 49.4543 44.227 58.6692 44.227 62.7075C44.227 65.5191 48.5884 65.5191 48.5884 62.7075C48.5884 58.6692 48.5884 54.6317 48.5884 50.5959C49.4776 32.3883 49.481 32.4429 48.861 27.1494Z" fill="white"/>
<defs>
<linearGradient id="paint0_linear_14_106" x1="22.4242" y1="75.1515" x2="69.0909" y2="9.69697" gradientUnits="userSpaceOnUse">
<stop stop-color="#DD69C7"/>
<stop offset="1" stop-color="#FFC0F3"/>
</linearGradient>
</defs>
</svg>
