<svg width="100" height="100" viewBox="0 0 100 100" fill="none" xmlns="http://www.w3.org/2000/svg">
<g opacity="0.2" filter="url(#filter0_b_52_63)">
<rect width="100" height="100" rx="20" fill="white"/>
</g>
<g clip-path="url(#clip0_52_63)">
<path d="M69.1714 42.3676C63.8521 45.1941 58.5579 48.1129 53.3856 51.2164C51.5465 49.3925 50.022 47.9407 49.6293 46.2145C49.6508 46.1114 49.5611 45.0461 49.5665 44.8954C49.5871 44.3538 49.614 43.8122 49.6714 43.2724C49.8373 41.7525 50.1117 40.2424 50.3592 38.7323C50.7609 36.2708 49.7136 33.8219 47.123 33.1278C46.202 32.8812 45.1538 32.9745 44.2113 33.3377C43.867 33.1494 43.4715 33.0184 43.0205 32.9682C39.2121 32.5459 35.4737 31.7074 31.8877 30.3516C28.3072 28.9985 26.7756 34.7258 30.3131 36.0637C33.8103 37.3863 37.4303 38.1575 41.115 38.6561C41.1024 38.726 41.0907 38.796 41.0773 38.8659C36.7739 39.6918 32.554 40.8584 28.3995 42.2896C24.81 43.5253 26.3523 49.2499 29.9741 48.0017C33.3906 46.8243 36.8493 45.8262 40.3626 45.0488C40.359 46.3419 40.4899 47.6161 40.837 48.841C41.6619 51.7446 43.4652 54.0832 45.4909 56.2335C44.2553 57.0729 43.0124 57.8969 41.7068 58.608C39.3879 59.8715 36.8071 61.5528 35.9149 64.1928C34.2587 69.0942 39.3708 71.0365 41.9668 74.0289C44.4732 76.9199 48.6456 72.7116 46.1554 69.8394C44.9099 68.4038 43.2169 67.5205 41.8969 66.1781C41.262 65.5298 41.3454 66.1153 42.0395 65.4849C43.0474 64.5676 44.2167 64.0296 45.3851 63.3481C49.0536 61.2103 52.4961 58.6609 56.1547 56.4864C61.4175 53.3622 66.7539 50.3565 72.1593 47.4816C75.5345 45.6881 72.5431 40.5751 69.1714 42.3676Z" fill="white"/>
<path d="M53.0764 34.2954C55.6432 34.2954 57.7241 32.2145 57.7241 29.6477C57.7241 27.0808 55.6432 25 53.0764 25C50.5095 25 48.4287 27.0808 48.4287 29.6477C48.4287 32.2145 50.5095 34.2954 53.0764 34.2954Z" fill="white"/>
</g>
<defs>
<filter id="filter0_b_52_63" x="-64" y="-64" width="228" height="228" filterUnits="userSpaceOnUse" color-interpolation-filters="sRGB">
<feFlood flood-opacity="0" result="BackgroundImageFix"/>
<feGaussianBlur in="BackgroundImageFix" stdDeviation="32"/>
<feComposite in2="SourceAlpha" operator="in" result="effect1_backgroundBlur_52_63"/>
<feBlend mode="normal" in="SourceGraphic" in2="effect1_backgroundBlur_52_63" result="shape"/>
</filter>
<clipPath id="clip0_52_63">
<rect width="50" height="50" fill="white" transform="translate(25 25)"/>
</clipPath>
</defs>
</svg>
