<svg width="80" height="80" viewBox="0 0 80 80" fill="none" xmlns="http://www.w3.org/2000/svg">
<rect width="80" height="80" rx="40" fill="url(#paint0_linear_14_79)"/>
<path d="M51.5009 40.8881C51.2649 34.1702 49.2789 27.6566 45.2626 22.2209C44.9019 21.7338 44.491 21.3028 44.0432 20.9338C42.6715 18.8122 40.9375 16.9534 38.6837 15.7441C35.3327 13.9464 31.6027 15.5223 30.7155 19.229C29.8853 22.7005 30.513 26.9662 30.4712 30.4946C30.4452 32.8136 30.4184 35.1343 30.3925 37.4534C32.6136 36.8985 34.9704 36.6558 37.461 36.7512C37.4878 34.4054 37.5137 32.0612 37.5413 29.7171C39.2076 32.4772 40.3006 35.434 40.7182 38.6393C34.5243 37.5463 28.2952 38.3079 22.9959 42.1317C20.0718 44.2407 22.8871 49.1424 25.8448 47.0083C30.7883 43.4406 36.2667 43.182 42.0255 44.7035C42.3276 44.7839 42.6088 44.8023 42.8799 44.7956C45.9949 47.1833 51.6783 45.9061 51.5009 40.8881Z" fill="white"/>
<path d="M30.2912 46.435C30.2334 51.484 30.1765 56.5356 30.118 61.5863C30.0669 66.1399 37.127 66.1374 37.1781 61.5863L37.0517 45.2005C34.5996 45.121 32.3659 45.5353 30.2912 46.435Z" fill="white"/>
<path d="M48.5926 46.8787C45.4718 46.8787 42.9444 49.4078 42.9444 52.5253C42.9444 55.6452 45.4727 58.1744 48.5926 58.1744C51.7101 58.1744 54.2375 55.6452 54.2375 52.5253C54.2375 49.4078 51.7101 46.8787 48.5926 46.8787Z" fill="white"/>
<defs>
<linearGradient id="paint0_linear_14_79" x1="22.4242" y1="75.1515" x2="69.0909" y2="9.69697" gradientUnits="userSpaceOnUse">
<stop stop-color="#DD69C7"/>
<stop offset="1" stop-color="#FFC0F3"/>
</linearGradient>
</defs>
</svg>
