<svg width="139" height="38" viewBox="0 0 139 38" fill="none" xmlns="http://www.w3.org/2000/svg">
<rect width="67" height="38" rx="10" fill="#6765F0"/>
<path d="M76.2 8.45996C76.2 8.45996 75.08 8.67996 73.8 8.67996V24H75.16L75.92 21.36C75.92 21.36 76.66 24.28 80.18 24.28C83.5 24.28 85.74 21.86 85.74 18.46C85.74 15.06 83.5 12.62 80.18 12.62C77.18 12.62 76.2 14.96 76.2 14.96V8.45996ZM79.42 22.5C77.02 22.5 75.7 20.66 75.7 18.46C75.7 16.26 77.02 14.4 79.42 14.4C81.78 14.4 83.18 16.06 83.18 18.46C83.18 20.86 81.78 22.5 79.42 22.5Z" fill="#6765F0"/>
<path d="M98.2415 21.34L98.3615 16.68C98.4215 14.4 96.8015 12.62 93.4815 12.62C89.0215 12.62 87.9415 15.92 87.9415 15.92L90.4215 16.64C90.4215 16.64 90.9615 14.4 93.5615 14.4C96.1415 14.4 95.9415 16.72 95.9415 16.72C89.9815 17.4 88.3415 19.98 88.3415 21.84C88.3415 23.22 89.3815 24.28 91.0215 24.28C94.3415 24.28 95.9415 19.8 95.9415 19.8V21.7C95.9415 23.66 97.1815 24.28 98.4215 24.28C100.281 24.28 101.021 23.28 101.021 23.28L100.541 21.5C100.541 21.5 100.101 22.5 99.1215 22.5C98.4815 22.5 98.2215 22.04 98.2415 21.34ZM90.8815 21.34C90.8815 20.36 91.4815 18.54 95.9415 17.4V18.1C95.9815 18.94 94.0615 22.5 91.9415 22.5C91.2815 22.5 90.8815 22.1 90.8815 21.34Z" fill="#6765F0"/>
<path d="M105.223 17.42C105.223 16.78 105.883 14.4 107.423 14.4C108.083 14.4 108.403 14.9 108.403 15.86C108.403 17.14 107.983 18.42 107.983 18.42L110.463 17.7C110.463 17.7 110.863 16.76 110.863 15.34C110.863 13.88 110.283 12.62 108.443 12.62C105.383 12.62 105.003 16.2 105.003 16.2L103.983 12.9H102.823V24H105.223V17.42Z" fill="#6765F0"/>
<path d="M122.558 21.34L122.678 16.68C122.738 14.4 121.118 12.62 117.798 12.62C113.338 12.62 112.258 15.92 112.258 15.92L114.738 16.64C114.738 16.64 115.278 14.4 117.878 14.4C120.458 14.4 120.258 16.72 120.258 16.72C114.298 17.4 112.658 19.98 112.658 21.84C112.658 23.22 113.698 24.28 115.338 24.28C118.658 24.28 120.258 19.8 120.258 19.8V21.7C120.258 23.66 121.498 24.28 122.738 24.28C124.598 24.28 125.338 23.28 125.338 23.28L124.858 21.5C124.858 21.5 124.418 22.5 123.438 22.5C122.798 22.5 122.538 22.04 122.558 21.34ZM115.198 21.34C115.198 20.36 115.798 18.54 120.258 17.4V18.1C120.298 18.94 118.378 22.5 116.258 22.5C115.598 22.5 115.198 22.1 115.198 21.34Z" fill="#6765F0"/>
<path d="M136.1 24H138.5V17.12C138.5 14.32 137.14 12.62 133.84 12.62C129.6 12.62 129.32 16.2 129.32 16.2L128.3 12.9H127.14V24H129.54V17.4C129.54 16.72 129.94 14.4 132.96 14.4C134.96 14.4 136.1 15.3 136.1 17.16V24Z" fill="#6765F0"/>
<path d="M23 14.0201C23 14.0201 22.08 8.18005 14.86 8.18005C9.33995 8.18005 6.19995 11.5601 6.19995 16.2401C6.19995 20.9001 9.33995 24.2801 14.26 24.2801C19.06 24.2801 20.14 21.0001 20.14 21.0001V24.0001H22.74V16.1201H14.28V17.8201H20.14C20.14 17.8201 19.84 22.3001 14.66 22.3001C11.1 22.3001 8.93995 19.6601 8.93995 16.2401C8.93995 12.8001 11.1 10.1601 14.86 10.1601C19.86 10.1601 20.32 14.8201 20.32 14.8201L23 14.0201Z" fill="white"/>
<path d="M29.5879 24.0201C28.8479 25.7201 27.7279 26.9001 26.7479 26.9001C25.7679 26.9001 25.3479 26.0801 25.3279 26.0401L25.0479 27.8201C25.0479 27.8201 25.7679 28.7401 27.2479 28.7401C29.0879 28.7401 30.3079 27.0801 31.8079 24.0001L37.1879 12.9001H34.4679L31.1279 20.7601L27.6279 12.9001H24.8679L29.9079 23.3001L29.5879 24.0201Z" fill="white"/>
<path d="M55.9028 24.0001H58.3028V17.1201C58.3028 14.3201 57.3428 12.6201 54.2428 12.6201C51.1428 12.6201 50.1428 14.7201 49.8428 15.7001C49.5228 13.7601 48.4028 12.6201 45.8828 12.6201C41.8428 12.6201 41.3628 16.2001 41.3628 16.2001L40.3428 12.9001H39.1828V24.0001H41.5828V17.4001C41.5828 16.7201 41.9828 14.4001 44.8028 14.4001C46.5428 14.4001 47.4828 15.2601 47.5428 17.0201V24.0001H49.9428V17.4001C49.9428 16.7201 50.3428 14.4001 53.1628 14.4001C54.9628 14.4001 55.9028 15.3001 55.9028 17.1601V24.0001Z" fill="white"/>
</svg>
