<svg width="100" height="100" viewBox="0 0 100 100" fill="none" xmlns="http://www.w3.org/2000/svg">
<g opacity="0.2" filter="url(#filter0_b_52_49)">
<rect width="100" height="100" rx="20" fill="white"/>
</g>
<g clip-path="url(#clip0_52_49)">
<path d="M50.2837 33.417C52.608 33.417 54.4922 31.5328 54.4922 29.2085C54.4922 26.8842 52.608 25 50.2837 25C47.9594 25 46.0752 26.8842 46.0752 29.2085C46.0752 31.5328 47.9594 33.417 50.2837 33.417Z" fill="white"/>
<path d="M67.1177 35.0379C62.5042 35.0379 57.8871 35.0379 53.2745 35.0379C51.4996 33.8818 48.9863 33.8782 47.2295 35.0379C42.4475 35.0379 37.6637 35.0379 32.8817 35.0379C30.169 35.0379 30.169 39.2437 32.8817 39.2437C36.9787 39.2437 41.0758 39.2437 45.1728 39.2437C45.1728 43.2619 45.1728 47.2801 45.1728 51.2992C45.1728 51.4007 45.1828 51.4977 45.1873 51.5982C45.1855 51.6463 45.1737 51.687 45.1737 51.7359C45.1737 58.7178 45.161 65.6996 44.8729 72.6769C44.7452 75.781 49.5553 75.7683 49.683 72.6769C49.9095 67.2082 49.9648 61.7367 49.9784 56.2643C50.2067 56.2788 50.435 56.2806 50.6624 56.2661C50.6769 61.7376 50.7322 67.2091 50.9578 72.6769C51.0855 75.7683 55.8947 75.781 55.7679 72.6769C55.4798 65.6996 55.4671 58.7178 55.4671 51.7359C55.4671 51.5221 55.4408 51.3237 55.3964 51.1389C55.3964 47.1741 55.3964 43.2093 55.3964 39.2437C59.3041 39.2437 63.2145 39.2437 67.1195 39.2437C69.8303 39.2437 69.8303 35.0379 67.1177 35.0379Z" fill="white"/>
</g>
<defs>
<filter id="filter0_b_52_49" x="-64" y="-64" width="228" height="228" filterUnits="userSpaceOnUse" color-interpolation-filters="sRGB">
<feFlood flood-opacity="0" result="BackgroundImageFix"/>
<feGaussianBlur in="BackgroundImageFix" stdDeviation="32"/>
<feComposite in2="SourceAlpha" operator="in" result="effect1_backgroundBlur_52_49"/>
<feBlend mode="normal" in="SourceGraphic" in2="effect1_backgroundBlur_52_49" result="shape"/>
</filter>
<clipPath id="clip0_52_49">
<rect width="50" height="50" fill="white" transform="translate(25 25)"/>
</clipPath>
</defs>
</svg>
